<svg fill="#fff" xmlns="http://www.w3.org/2000/svg" viewBox="0 0 297 297"><path d="M286.841 168.466h-12.943c-.552-17.346-9.113-33.449-23-43.624.003-.232.005-.464.005-.695 0-31.02-25.236-56.256-56.256-56.256a10.16 10.16 0 0 0-9.916 12.368c2.349 10.549 1.178 18.741-3.583 25.044-9.967 13.193-32.529 14.642-32.726 14.654a10.149 10.149 0 0 0-4.476 1.303c-17.125 9.686-27.951 27.654-28.572 47.207h-22.95L167.223 59.83a10.158 10.158 0 0 0-2.606-14.128l-19.245-13.251c-20.762-14.297-49.284-9.034-63.58 11.728L8.047 151.283c-14.295 20.763-9.034 49.284 11.728 63.579l19.246 13.252a10.158 10.158 0 0 0 14.128-2.606l22.382-32.507v33.88c0 25.208 20.508 45.716 45.716 45.716h130.037c25.208 0 45.716-20.508 45.716-45.716v-48.256c0-5.611-4.549-10.159-10.159-10.159zM42.176 205.618l-10.878-7.49c-11.534-7.942-14.457-23.787-6.515-35.322L98.527 55.701c7.941-11.534 23.787-14.459 35.323-6.515l10.877 7.489L42.176 205.618zm110.008-65.609c8.065-.898 31.877-4.967 45.095-22.355 5.949-7.826 8.939-17.046 8.946-27.533 14.154 4.829 24.36 18.257 24.36 34.025 0 1.484-.105 3.05-.313 4.653a10.16 10.16 0 0 0 5.075 10.144 36.029 36.029 0 0 1 18.226 29.522H135.717c.576-11.557 6.723-22.184 16.467-28.456zm124.498 48.775v16.255H95.849v-16.255h180.833zm-25.398 63.494H121.247c-14.005 0-25.398-11.393-25.398-25.398v-7.619h180.832v7.619c.001 14.005-11.393 25.398-25.397 25.398z"/></svg>