<svg fill="#fff" height="800" width="800" xmlns="http://www.w3.org/2000/svg" viewBox="0 0 297 297"><path d="M81.389 123.888 37.881 232.946H10.458C4.682 232.946 0 237.629 0 243.404s4.682 10.458 10.458 10.458h34.511c4.28 0 8.127-2.607 9.713-6.583l24.908-62.438h70.03v82.616h-24.053c-5.775 0-10.458 4.682-10.458 10.458 0 5.775 4.682 10.458 10.458 10.458h69.021c5.775 0 10.458-4.682 10.458-10.458 0-5.775-4.682-10.458-10.458-10.458h-24.053v-82.616h75.85c4.767 0 8.931-3.224 10.125-7.839l40.157-155.297a10.456 10.456 0 0 0-10.125-13.076h-46.589a10.459 10.459 0 0 0-10.125 7.839L214.007 77.65h-88.441c-5.775 0-10.458 4.682-10.458 10.458v29.23h-24.02c-4.382-.002-8.143 2.727-9.699 6.55zm54.635-25.324h72.575l-4.854 18.772h-67.721V98.564zm102.263 65.361H87.933l10.242-25.674h113.668c4.767 0 8.931-3.224 10.125-7.839l26.083-100.869h24.985l-34.749 134.382z"/></svg>