<?xml version="1.0" standalone="no"?>
<!DOCTYPE svg PUBLIC "-//W3C//DTD SVG 20010904//EN"
 "http://www.w3.org/TR/2001/REC-SVG-20010904/DTD/svg10.dtd">
<svg version="1.0" xmlns="http://www.w3.org/2000/svg"
 viewBox="0 0 512.000000 512.000000"
 preserveAspectRatio="xMidYMid meet">

<g transform="translate(0.000000,512.000000) scale(0.100000,-0.100000)"
fill="#ffffff" stroke="none">
<path d="M1685 5109 c-133 -19 -321 -94 -434 -172 -69 -47 -208 -184 -256
-252 -92 -128 -163 -306 -184 -459 -7 -52 -11 -462 -11 -1244 l0 -1167 -63
-24 c-310 -119 -553 -326 -662 -565 -68 -149 -68 -150 -73 -688 l-3 -488 25
-25 25 -25 2511 0 2511 0 24 25 25 24 0 1111 0 1111 -25 24 -24 25 -360 0
-360 0 -48 30 c-64 41 -181 84 -283 106 -92 19 -337 25 -442 11 l-58 -7 0 847
c0 914 -2 947 -53 1098 -60 173 -143 302 -285 436 -128 121 -273 201 -457 251
-76 21 -103 22 -530 24 -247 1 -477 -2 -510 -7z m1000 -173 c372 -110 636
-429 671 -810 l7 -75 -48 15 c-66 19 -114 18 -180 -7 -63 -23 -118 -67 -141
-110 -14 -28 -17 -29 -95 -29 l-80 0 16 31 c20 37 45 150 45 202 0 75 -83 115
-134 64 -17 -17 -24 -39 -29 -87 -8 -76 -55 -180 -89 -198 -48 -26 -200 24
-283 92 -54 44 -93 119 -104 197 -9 70 -33 99 -81 99 -48 0 -72 -29 -81 -98
-16 -115 -81 -201 -193 -253 -77 -36 -168 -54 -195 -39 -32 17 -80 127 -88
200 -5 48 -12 70 -29 87 -51 51 -134 11 -134 -64 0 -52 25 -165 45 -202 l16
-31 -80 0 c-78 0 -81 1 -95 29 -41 78 -160 137 -261 128 -33 -3 -71 -9 -84
-13 l-24 -7 7 76 c37 412 342 746 744 817 26 5 243 7 482 6 382 -2 442 -5 495
-20z m-459 -1016 c39 -36 92 -73 136 -94 115 -54 189 -66 408 -66 l191 0 -3
-387 c-4 -412 -4 -413 -58 -555 -51 -136 -180 -289 -314 -373 -293 -182 -662
-161 -928 54 -153 124 -252 295 -287 495 -7 34 -11 210 -11 413 l0 353 191 0
c137 0 210 4 262 16 107 24 208 75 280 144 34 33 64 59 66 60 2 0 32 -27 67
-60z m-1093 -11 c12 -6 32 -21 45 -32 22 -20 22 -22 22 -306 l-1 -286 -64 69
c-166 179 -228 452 -124 540 33 28 84 34 122 15z m2176 -15 c104 -88 42 -361
-124 -540 l-64 -69 -1 286 c0 284 0 286 23 306 56 51 118 58 166 17z m-2155
-782 l40 -31 -37 -258 c-20 -142 -37 -266 -37 -276 0 -29 45 -67 80 -67 49 0
76 35 85 111 10 89 18 101 40 58 10 -19 39 -64 66 -100 l49 -66 0 -250 0 -251
-240 -60 -240 -60 0 720 0 720 78 -80 c42 -43 95 -93 116 -110z m2206 -251 l0
-439 -84 -41 c-97 -47 -156 -97 -156 -133 0 -13 38 -113 85 -222 47 -109 84
-200 83 -201 -2 -1 -94 32 -205 74 l-203 76 0 254 0 254 49 66 c27 36 56 81
66 100 22 43 30 31 40 -58 9 -76 36 -111 85 -111 35 0 80 38 80 67 0 10 -17
134 -37 276 l-37 259 35 25 c19 14 70 63 114 109 44 45 81 83 83 83 1 1 2
-197 2 -438z m-1559 -630 c133 -53 199 -65 364 -65 122 1 165 5 229 22 81 22
244 95 296 132 l30 21 0 -196 0 -196 -276 -309 c-151 -171 -279 -310 -284
-310 -5 0 -133 139 -284 310 l-276 309 0 195 0 195 63 -39 c34 -21 96 -53 138
-69z m2139 74 c109 -16 243 -60 278 -90 2 -2 -40 -105 -93 -229 l-97 -226 -69
0 -69 0 55 110 c30 60 55 121 55 135 0 35 -42 75 -77 75 -45 0 -65 -21 -113
-119 -24 -50 -47 -91 -50 -91 -3 0 -26 41 -50 91 -48 98 -68 119 -113 119 -35
0 -77 -40 -77 -75 0 -14 25 -75 55 -135 l55 -110 -69 0 -69 0 -97 226 c-53
124 -95 227 -93 229 2 1 21 11 43 22 147 74 384 101 595 68z m1020 -345 l0
-200 -380 0 -379 0 33 78 c18 42 57 132 86 200 l52 122 294 0 294 0 0 -200z
m-3196 -434 c146 -165 266 -303 266 -308 0 -12 -108 -63 -185 -88 -88 -28
-186 -30 -239 -5 -21 10 -50 36 -64 58 -26 39 -27 47 -27 166 l0 126 -119 148
c-65 81 -117 149 -115 152 7 6 193 54 206 52 6 -1 131 -137 277 -301z m1158
263 c46 -16 87 -34 91 -38 4 -4 -41 -68 -100 -142 l-108 -134 0 -126 c0 -119
-1 -127 -27 -166 -68 -102 -230 -103 -430 -2 -33 17 -58 35 -56 41 7 20 523
597 535 598 6 0 49 -14 95 -31z m-1692 -214 l120 -150 0 -92 c0 -374 316 -497
723 -280 l78 41 124 -124 125 -125 0 -342 0 -343 -400 0 -400 0 0 135 c0 131
-1 137 -25 160 l-24 25 -311 0 -311 0 -24 -25 c-24 -23 -25 -29 -25 -160 l0
-135 -120 0 -121 0 6 63 c14 148 27 231 47 304 33 125 34 138 4 167 -32 33
-79 34 -110 3 -36 -37 -96 -296 -96 -422 0 -22 -3 -57 -6 -77 l-7 -38 -158 0
-159 0 0 389 c0 432 6 494 60 609 97 207 282 363 579 487 74 31 267 85 294 82
9 -1 71 -69 137 -152z m2060 76 l75 -28 71 -704 c39 -387 74 -716 77 -731 l7
-28 -480 0 -480 0 0 373 c0 316 -2 376 -15 394 -15 21 -15 22 39 16 30 -3 78
0 107 7 188 44 279 170 279 383 l0 92 106 133 c77 96 111 131 123 127 9 -2 50
-18 91 -34z m700 -68 c0 -10 -7 -79 -15 -153 -8 -74 -15 -138 -15 -142 0 -5
-90 -8 -200 -8 -110 0 -200 3 -200 8 0 4 -7 68 -15 142 -8 74 -15 143 -15 153
0 16 18 17 230 17 212 0 230 -1 230 -17z m330 -503 l0 -520 -135 0 c-101 0
-135 3 -135 13 0 6 23 235 50 507 27 272 50 501 50 508 0 9 24 12 85 12 l85 0
0 -520z m640 400 l0 -120 -240 0 -240 0 0 120 0 120 240 0 240 0 0 -120z m0
-400 l0 -120 -240 0 -240 0 0 120 0 120 240 0 240 0 0 -120z m-1020 13 c0 -16
-20 -219 -44 -452 l-43 -424 -32 -29 c-50 -45 -118 -33 -144 26 -12 25 -98
814 -97 889 0 16 15 17 180 17 l180 0 0 -27z m1020 -413 l0 -120 -240 0 -240
0 0 120 0 120 240 0 240 0 0 -120z m0 -400 l0 -120 -481 0 c-466 0 -480 1
-474 19 6 19 25 172 25 204 0 16 29 17 465 17 l465 0 0 -120z m-3520 -40 l0
-80 -200 0 -200 0 0 80 0 80 200 0 200 0 0 -80z"/>
<path d="M2426 4777 c-33 -33 -34 -79 -3 -111 18 -18 38 -24 97 -29 170 -14
310 -92 415 -232 69 -93 97 -105 149 -64 57 45 13 146 -117 265 -124 113 -271
178 -429 190 -83 7 -87 6 -112 -19z"/>
<path d="M1687 3594 c-22 -22 6 -80 50 -103 12 -6 24 -24 28 -40 3 -15 20 -41
36 -57 25 -24 39 -29 79 -29 43 0 54 5 82 33 28 28 33 39 33 82 0 43 -5 54
-33 82 -35 35 -23 34 -187 26 -16 -1 -41 1 -55 6 -14 4 -29 4 -33 0z"/>
<path d="M2395 3591 c-45 -20 -70 -60 -70 -112 0 -42 5 -53 33 -81 28 -28 39
-33 82 -33 40 0 54 5 79 29 16 16 33 42 36 58 4 17 18 34 34 42 54 28 70 104
21 98 -49 -5 -96 -5 -145 1 -27 4 -59 3 -70 -2z"/>
<path d="M2105 3335 c-24 -23 -25 -28 -25 -175 0 -147 1 -152 25 -175 15 -16
36 -25 55 -25 19 0 40 9 55 25 24 23 25 28 25 175 0 147 -1 152 -25 175 -15
16 -36 25 -55 25 -19 0 -40 -9 -55 -25z"/>
<path d="M1865 2855 c-113 -112 177 -256 408 -201 163 38 249 127 187 194 -29
31 -68 38 -99 19 -129 -83 -279 -87 -380 -12 -44 32 -85 32 -116 0z"/>
<path d="M2105 775 c-50 -49 -15 -135 55 -135 19 0 40 9 55 25 16 15 25 36 25
55 0 19 -9 40 -25 55 -15 16 -36 25 -55 25 -19 0 -40 -9 -55 -25z"/>
<path d="M2105 455 c-50 -49 -15 -135 55 -135 41 0 80 39 80 80 0 41 -39 80
-80 80 -19 0 -40 -9 -55 -25z"/>
<path d="M2745 455 c-16 -15 -25 -36 -25 -55 0 -19 9 -40 25 -55 l24 -25 271
0 271 0 24 25 c16 15 25 36 25 55 0 19 -9 40 -25 55 l-24 25 -271 0 -271 0
-24 -25z"/>
</g>
</svg>
