<svg xmlns="http://www.w3.org/2000/svg" xmlns:xlink="http://www.w3.org/1999/xlink" version="1.1" x="0px" y="0px" viewBox="0 0 62 77.5" style="enable-background:new 0 0 62 62;" xml:space="preserve" fill="#ffffff" ><g><path d="M62,28v-2h-7c-1.654,0-3,1.346-3,3v11h-0.171c-0.76,0-1.472,0.289-2.028,0.802C49.922,40.21,50,39.608,50,39V19   C50,8.523,41.477,0,31,0S12,8.523,12,19v13.101C11.677,32.035,11.342,32,11,32h-0.351c-0.538,0-1.07,0.086-1.581,0.256   l-8.384,2.795C0.275,35.188,0,35.569,0,36v5c0,0.552,0.448,1,1,1h3.184C4.072,42.314,4,42.648,4,43v0.184   C3.686,43.072,3.352,43,3,43c-1.654,0-3,1.346-3,3v2c0,1.654,1.346,3,3,3c0.352,0,0.686-0.072,1-0.184V51c0,1.654,1.346,3,3,3   s3-1.346,3-3v-1h10.772l-0.743,6.683C20.01,56.857,20,57.034,20,57.21c0,2.641,2.149,4.79,4.79,4.79h12.42   c2.641,0,4.79-2.149,4.79-4.79c0-0.176-0.01-0.353-0.029-0.529L41.228,50H52v1c0,1.654,1.346,3,3,3s3-1.346,3-3v-0.184   C58.314,50.928,58.648,51,59,51c1.654,0,3-1.346,3-3v-2c0-1.654-1.346-3-3-3c-0.352,0-0.686,0.072-1,0.184V43v-3h4v-2h-4v-1h4v-2   h-4v-1h4v-2h-4v-1h4v-2h-4v-1H62z M14,19c0-9.374,7.626-17,17-17s17,7.626,17,17v20c0,0.948-0.201,1.883-0.57,2.747l-7.152-1.1   C43.685,38.775,46,35.154,46,31V18v-1c0-3.422-2.181-6.448-5.427-7.53l-1.256-0.419l-0.633,1.897l1.256,0.419   c2.106,0.702,3.613,2.498,3.976,4.632H28c-1.103,0-2-0.897-2-2v-4h-2v3.307l-2.16,0.81c-3.493,1.31-5.84,4.697-5.84,8.427V31   c0,4.154,2.315,7.775,5.722,9.647l-8.373,1.288l-0.355-0.355C14.76,40.807,16,39.048,16,37c0-1.627-0.793-3.061-2-3.974V19z    M24.251,15.349C24.807,16.89,26.27,18,28,18h16v13c0,4.962-4.038,9-9,9h-8c-4.962,0-9-4.038-9-9v-8.456   c0-2.902,1.825-5.536,4.542-6.554L24.251,15.349z M35,43.728C34.698,43.903,34.355,44,34,44c-1.103,0-2-0.897-2-2h3V43.728z M27,42   h3c0,1.103-0.897,2-2,2c-0.355,0-0.698-0.097-1-0.272V42z M27,45.857C27.325,45.941,27.658,46,28,46c1.2,0,2.266-0.542,3-1.382   C31.734,45.458,32.8,46,34,46c0.342,0,0.675-0.059,1-0.143V47c0,0.551-0.449,1-1,1h-6c-0.551,0-1-0.449-1-1V45.857z M9.7,34.154   C10.007,34.052,10.326,34,10.649,34H11c1.654,0,3,1.346,3,3s-1.346,3-3,3h-0.829H7H6v-4.613L9.7,34.154z M2,36.721l2-0.667V40H2   V36.721z M3,49c-0.551,0-1-0.449-1-1v-2c0-0.551,0.449-1,1-1s1,0.449,1,1v2C4,48.551,3.551,49,3,49z M8,51c0,0.551-0.449,1-1,1   s-1-0.449-1-1v-5.171C6.313,45.939,6.649,46,7,46h1V51z M7,44c-0.551,0-1-0.449-1-1s0.449-1,1-1h3.171   c0.267,0,0.519,0.104,0.708,0.293L12,43.414V48h-2v-4H7z M14,48v-4.142l7.584-1.167L20.994,48H14z M36,60H26v-4h10V60z M38,59.872   V54H24v5.872c-1.152-0.343-2-1.4-2-2.662c0-0.104,0.006-0.207,0.017-0.308l1.614-14.526L25,42.166V47c0,1.654,1.346,3,3,3h6   c1.654,0,3-1.346,3-3v-4.834l1.369,0.211L39.983,56.9C39.994,57.003,40,57.106,40,57.21C40,58.472,39.152,59.529,38,59.872z    M40.416,42.691L48,43.858V48h-6.994L40.416,42.691z M56,51c0,0.551-0.449,1-1,1s-1-0.449-1-1v-5h1c0.351,0,0.687-0.061,1-0.171V51   z M59,45c0.551,0,1,0.449,1,1v2c0,0.551-0.449,1-1,1s-1-0.449-1-1v-2C58,45.449,58.449,45,59,45z M55,44h-3v4h-2v-4.586   l1.121-1.121C51.31,42.104,51.562,42,51.829,42H55c0.551,0,1,0.449,1,1S55.551,44,55,44z M56,40.184C55.686,40.072,55.352,40,55,40   h-1V29c0-0.551,0.449-1,1-1h1V40.184z"/><path d="M25,32c0,3.309,2.691,6,6,6s6-2.691,6-6v-2H25V32z M35,32c0,2.206-1.794,4-4,4s-4-1.794-4-4H35z"/><path d="M21,25h2c0-1.103,0.897-2,2-2s2,0.897,2,2h2c0-2.206-1.794-4-4-4S21,22.794,21,25z"/><path d="M37,23c1.103,0,2,0.897,2,2h2c0-2.206-1.794-4-4-4s-4,1.794-4,4h2C35,23.897,35.897,23,37,23z"/></g></svg>