<svg width="250mm" height="130mm" viewBox="0 0 250 130" xmlns="http://www.w3.org/2000/svg"><path style="fill:none;fill-opacity:.994819;stroke:#000;stroke-width:.264583;stroke-opacity:1" transform="matrix(1.00002 0 0 .9046 -250.003 2.534)" d="M.003 35.89c8.332-.297 16.665-.593 28.33 3.425C40 43.333 55 51.667 70.834 47.209c15.834-4.458 32.5-21.707 50.834-21.707C140 25.502 160 42.752 177.5 45.515c17.5 2.763 32.498-8.958 44.165-15.003 11.666-6.045 19.999-6.414 28.332-6.782m249.994 0c8.334.368 16.667.737 28.333 6.782 11.666 6.045 26.665 17.766 42.498 15.294 15.833-2.473 32.5-19.14 50.833-19.14 18.334 0 38.334 16.667 55.834 20.834 17.5 4.167 32.5-4.167 44.166-8.185 11.666-4.018 19.998-3.722 28.33-3.425M249.998 23.73c8.333.368 16.666.737 28.333 6.782 11.666 6.045 26.665 17.766 42.498 15.003 15.833-2.764 32.5-20.013 50.833-20.013s38.333 17.25 55.833 20.013c17.5 2.763 32.499-8.958 44.165-15.003 11.666-6.045 20-6.414 28.332-6.782"/></svg>